<svg xmlns="http://www.w3.org/2000/svg" width="24.858" height="24.857" viewBox="0 0 24.858 24.857"><defs><style>.a{fill:#464658;fill-rule:evenodd;}</style></defs><path class="a" d="M1.582,11.652H5.451a21.294,21.294,0,0,1,.485-3.884H2.6a10.81,10.81,0,0,0-1.019,3.884ZM3.5,6.214H6.355a14.4,14.4,0,0,1,.994-2.391,10.409,10.409,0,0,1,.927-1.449A10.912,10.912,0,0,0,3.5,6.214ZM12.429,0A12.429,12.429,0,1,0,24.858,12.429,12.429,12.429,0,0,0,12.429,0Zm-.777,1.673A5.465,5.465,0,0,0,8.72,4.555a12.37,12.37,0,0,0-.727,1.659h3.659Zm0,6.095H7.53a19.42,19.42,0,0,0-.525,3.884h4.647Zm1.554,3.884V7.768h4.122a19.333,19.333,0,0,1,.525,3.884Zm-1.554,1.554H7.006A19.42,19.42,0,0,0,7.53,17.09h4.122Zm1.554,3.884V13.206h4.646a19.412,19.412,0,0,1-.523,3.884Zm-1.554,1.554H7.993A12.332,12.332,0,0,0,8.72,20.3a5.477,5.477,0,0,0,2.932,2.882Zm-3.376,3.84a10.4,10.4,0,0,1-.927-1.449,14.4,14.4,0,0,1-.994-2.391H3.5a10.912,10.912,0,0,0,4.773,3.84ZM2.6,17.09H5.935a21.208,21.208,0,0,1-.485-3.884H1.581A10.774,10.774,0,0,0,2.6,17.09Zm13.981,5.394a10.912,10.912,0,0,0,4.773-3.84H18.5a14.415,14.415,0,0,1-1,2.391,10.39,10.39,0,0,1-.927,1.449Zm.283-3.84H13.206v4.541A5.465,5.465,0,0,0,16.137,20.3a12.4,12.4,0,0,0,.727-1.659Zm2.058-1.554h3.334a10.76,10.76,0,0,0,1.019-3.884H19.408a21.207,21.207,0,0,1-.485,3.884Zm.485-5.438h3.869a10.812,10.812,0,0,0-1.019-3.884H18.923A21.354,21.354,0,0,1,19.408,11.652Zm-.9-5.438a14.412,14.412,0,0,0-.994-2.391,10.4,10.4,0,0,0-.927-1.449,10.912,10.912,0,0,1,4.773,3.84H18.5Zm-1.639,0H13.206V1.673a5.465,5.465,0,0,1,2.932,2.882,12.37,12.37,0,0,1,.727,1.659Z"/></svg>