<svg xmlns="http://www.w3.org/2000/svg" width="31.5" height="33.134" viewBox="0 0 31.5 33.134">
    <defs><style>.a{fill:#fff;opacity:0.603;}</style></defs>
    <path class="a" d="M33.023,15.219,19.06,2.373a2.391,2.391,0,0,0-3.309.069L2.909,15.284l-.659.659V34.875H14.625V23.063h6.75V34.876H33.75V15.888ZM17.44,3.992c.02,0,.008,0,0,.013C17.43,4,17.42,3.992,17.44,3.992ZM31.5,32.625H23.625V23.063a2.25,2.25,0,0,0-2.25-2.25h-6.75a2.25,2.25,0,0,0-2.25,2.25v9.563H4.5V16.875L17.44,4.033s0,0,0,0L31.5,16.875Z" transform="translate(-2.25 -1.742)"/></svg>