<svg xmlns="http://www.w3.org/2000/svg" xmlns:xlink="http://www.w3.org/1999/xlink" width="100" height="100" viewBox="0 0 100 100"><defs><style>.a{fill:#323246;}.b{fill:#eb108b;}.c{filter:url(#a);}</style><filter id="a" x="0" y="0" width="100" height="100" filterUnits="userSpaceOnUse"><feOffset input="SourceAlpha"/><feGaussianBlur stdDeviation="10" result="b"/><feFlood flood-color="#eb108b"/><feComposite operator="in" in2="b"/><feComposite in="SourceGraphic"/></filter></defs><g transform="translate(1764 1711)"><g class="c" transform="matrix(1, 0, 0, 1, -1764, -1711)"><circle class="a" cx="20" cy="20" r="20" transform="translate(30 30)"/></g><g transform="translate(-1722 -1668)"><path class="b" d="M9,8.333a.874.874,0,0,1,.1-.4.756.756,0,0,1,1.061-.323l9.392,5.557a.8.8,0,0,1,.3.324.861.861,0,0,1-.3,1.131l-9.392,5.557a.743.743,0,0,1-.378.105A.809.809,0,0,1,9,19.447Z" transform="translate(-9 -7.279)"/><rect class="b" width="5" height="13" transform="translate(10.493)"/></g></g></svg>