<svg xmlns="http://www.w3.org/2000/svg" width="11.219" height="10" viewBox="0 0 11.219 10"><defs><style>.a{fill:#eb108b;}.b{fill:#323246;}</style></defs><path class="a" d="M520.182,1808.524a4.31,4.31,0,0,1-1.1-2.871H518.3a5.1,5.1,0,0,0,7.988,4.206h-2.043A4.3,4.3,0,0,1,520.182,1808.524Z" transform="translate(-518.298 -1800.76)"/><path class="a" d="M527.286,1802.6c-.036-.043-.077-.081-.115-.122-.072-.081-.144-.161-.221-.236-.054-.053-.112-.1-.168-.154s-.143-.129-.219-.189-.128-.1-.192-.144-.151-.1-.229-.159-.138-.086-.209-.127-.162-.091-.245-.134-.145-.072-.22-.1-.176-.075-.266-.11-.149-.056-.224-.082c-.1-.032-.2-.059-.294-.085-.073-.019-.144-.04-.219-.057-.114-.025-.23-.042-.346-.058-.063-.01-.124-.022-.186-.028a5.072,5.072,0,0,0-4.475,1.811v-1.453h-.785v3.138h3.138v-.784h-2.04a4.3,4.3,0,0,1,3.61-1.962,4.381,4.381,0,0,1,.467.026c.053.006.1.017.158.024.1.015.2.029.293.05.063.013.123.031.185.047.084.022.166.045.248.072.064.021.128.046.19.07s.151.059.224.092.126.059.187.09.139.073.209.112.119.07.178.1.13.088.192.134.111.08.163.123.123.1.184.159c.045.04.074.067.106.1H527.4C527.358,1802.71,527.327,1802.652,527.286,1802.6Z" transform="translate(-518.281 -1800.78)"/><path class="b" d="M523.573,1805.323a2.269,2.269,0,0,1-.267.149,1.829,1.829,0,0,1-.3.112.977.977,0,0,1-.273.044v-.785a.706.706,0,0,0,.276-.071,2.477,2.477,0,0,0,.32-.173,2.64,2.64,0,0,0,.273-.2.664.664,0,0,0,.148-.154h.86v2.824h.8v.759h-2.549v-.759h.892v-1.9A.659.659,0,0,1,523.573,1805.323Zm5.617,2.552a1.383,1.383,0,0,1-.342.474,1.584,1.584,0,0,1-.521.308,1.893,1.893,0,0,1-.653.109,1.821,1.821,0,0,1-.876-.206,1.428,1.428,0,0,1-.587-.565l.483-.5a1.305,1.305,0,0,0,.439.389,1.134,1.134,0,0,0,.546.143.777.777,0,0,0,.555-.2.73.73,0,0,0-.505-1.271.8.8,0,0,0-.386.094.752.752,0,0,0-.286.257h-.734a1.345,1.345,0,0,1,.025-.142c.017-.081.038-.185.063-.313s.052-.27.082-.428.061-.316.094-.48q.113-.576.251-1.292h2.2v.765h-1.588l-.182,1a.528.528,0,0,1,.223-.132,1.1,1.1,0,0,1,.361-.05,1.635,1.635,0,0,1,.584.1,1.387,1.387,0,0,1,.465.293,1.326,1.326,0,0,1,.3.452,1.606,1.606,0,0,1-.013,1.2Z" transform="translate(-518.093 -1800.751)"/><path class="a" d="M522.859,1807.073v.759h2.549v-.759h-.8v-2.824h-.86a.664.664,0,0,1-.148.154,2.64,2.64,0,0,1-.273.2,2.477,2.477,0,0,1-.32.173.706.706,0,0,1-.276.071v.785a.977.977,0,0,0,.273-.044,1.829,1.829,0,0,0,.3-.112,2.269,2.269,0,0,0,.267-.149.659.659,0,0,0,.179-.153v1.9Z" transform="translate(-518.093 -1800.732)"/><path class="a" d="M528.745,1806.225a1.387,1.387,0,0,0-.464-.293,1.636,1.636,0,0,0-.584-.1,1.1,1.1,0,0,0-.361.05.528.528,0,0,0-.223.132l.182-1h1.588v-.765h-2.2q-.138.715-.251,1.292-.05.246-.094.48c-.029.158-.056.3-.082.428s-.046.232-.063.313a1.327,1.327,0,0,0-.025.142h.734a.752.752,0,0,1,.286-.257.8.8,0,0,1,.386-.094.746.746,0,0,1,.505,1.271.777.777,0,0,1-.555.2,1.134,1.134,0,0,1-.546-.143,1.305,1.305,0,0,1-.439-.389l-.483.5a1.427,1.427,0,0,0,.587.565,1.821,1.821,0,0,0,.876.206,1.894,1.894,0,0,0,.653-.109,1.583,1.583,0,0,0,.521-.308,1.383,1.383,0,0,0,.342-.474,1.607,1.607,0,0,0,.013-1.2A1.327,1.327,0,0,0,528.745,1806.225Z" transform="translate(-517.94 -1800.751)"/></svg>