<svg xmlns="http://www.w3.org/2000/svg" xmlns:xlink="http://www.w3.org/1999/xlink" width="110" height="110" viewBox="0 0 110 110"><defs><style>.a{fill:#323246;}.b{fill:#faad1b;}.c{fill:#d8b93c;}.d{fill:#94d17d;}.e{fill:#b6c55c;}.f{fill:#63be98;}.g{fill:#31abb2;}.h{filter:url(#a);}</style><filter id="a" x="0" y="0" width="110" height="110" filterUnits="userSpaceOnUse"><feOffset input="SourceAlpha"/><feGaussianBlur stdDeviation="5" result="b"/><feFlood flood-color="#94d17d" flood-opacity="0.4"/><feComposite operator="in" in2="b"/><feComposite in="SourceGraphic"/></filter></defs><g transform="translate(-728 -358)"><g class="h" transform="matrix(1, 0, 0, 1, 728, 358)"><circle class="a" cx="40" cy="40" r="40" transform="translate(15 15)"/></g><g transform="translate(759.009 385.641)"><path class="b" d="M404,2331.26a1.625,1.625,0,0,0-1.592,1.622v4.1a1.606,1.606,0,0,0,3.211,0v-4.1A1.631,1.631,0,0,0,404,2331.26Z" transform="translate(-402.409 -2308.202)"/><path class="c" d="M418.7,2320.666a1.6,1.6,0,0,0-1.62,1.589v13.365a1.606,1.606,0,0,0,3.212,0v-13.365A1.6,1.6,0,0,0,418.7,2320.666Z" transform="translate(-410.683 -2302.225)"/><path class="d" d="M462.732,2300.278a1.633,1.633,0,0,0,1.622-1.62v-18.717a1.627,1.627,0,0,0-1.622-1.591,1.6,1.6,0,0,0-1.589,1.591v18.717A1.6,1.6,0,0,0,462.732,2300.278Z" transform="translate(-435.546 -2278.351)"/><path class="e" d="M448.067,2350.7a1.577,1.577,0,0,0-1.589,1.592V2371a1.59,1.59,0,0,0,3.18,0V2352.29A1.579,1.579,0,0,0,448.067,2350.7Z" transform="translate(-427.272 -2319.168)"/><path class="f" d="M492.093,2320.666a1.6,1.6,0,0,0-1.618,1.589v13.365a1.6,1.6,0,0,0,3.209,0v-13.365A1.6,1.6,0,0,0,492.093,2320.666Z" transform="translate(-452.095 -2302.225)"/><path class="e" d="M436.581,2294.28a4.8,4.8,0,0,0-4.77,4.8v29.142a1.59,1.59,0,1,0,3.181,0v-29.142a1.606,1.606,0,0,1,3.212,0v14.985a1.59,1.59,0,0,0,3.18,0v-14.985A4.81,4.81,0,0,0,436.581,2294.28Z" transform="translate(-418.997 -2287.338)"/><path class="g" d="M506.8,2331.26a1.6,1.6,0,0,0-1.587,1.622v4.1a1.589,1.589,0,0,0,3.179,0v-4.1A1.6,1.6,0,0,0,506.8,2331.26Z" transform="translate(-460.408 -2308.202)"/><path class="d" d="M469.124,2303.472a1.626,1.626,0,0,0-1.589,1.62v29.113a1.59,1.59,0,0,1-3.181,0v-14.952a1.632,1.632,0,0,0-1.622-1.622,1.6,1.6,0,0,0-1.589,1.622v14.952a4.8,4.8,0,1,0,9.6,0v-29.113A1.631,1.631,0,0,0,469.124,2303.472Z" transform="translate(-435.546 -2292.524)"/></g></g></svg>