<svg xmlns="http://www.w3.org/2000/svg" xmlns:xlink="http://www.w3.org/1999/xlink" width="110" height="110" viewBox="0 0 110 110"><defs><style>.a{fill:#323246;}.b{fill:#0098cd;}.c{fill:#5472d1;}.d{fill:#eb108b;}.e{fill:#824baa;}.f{fill:#f77a43;}.g{fill:#faad1b;}.h{filter:url(#a);}</style><filter id="a" x="0" y="0" width="110" height="110" filterUnits="userSpaceOnUse"><feOffset input="SourceAlpha"/><feGaussianBlur stdDeviation="5" result="b"/><feFlood flood-opacity="0.275"/><feComposite operator="in" in2="b"/><feComposite in="SourceGraphic"/></filter></defs><g transform="translate(-728 -358)"><g class="h" transform="matrix(1, 0, 0, 1, 728, 358)"><circle class="a" cx="40" cy="40" r="40" transform="translate(15 15)"/></g><g transform="translate(380.799 -1527.755)"><g transform="translate(378.201 1913.755)"><path class="b" d="M386.875,1971.779a1.622,1.622,0,0,0-1.589,1.619v4.093a1.6,1.6,0,0,0,3.207,0V1973.4A1.628,1.628,0,0,0,386.875,1971.779Z" transform="translate(-385.286 -1948.75)"/><path class="c" d="M401.57,1961.184a1.6,1.6,0,0,0-1.618,1.587v13.348a1.6,1.6,0,0,0,3.207,0v-13.348A1.6,1.6,0,0,0,401.57,1961.184Z" transform="translate(-393.569 -1942.766)"/><path class="d" d="M445.607,1940.768a1.631,1.631,0,0,0,1.62-1.618v-18.692a1.624,1.624,0,0,0-1.62-1.589,1.6,1.6,0,0,0-1.587,1.589v18.692A1.6,1.6,0,0,0,445.607,1940.768Z" transform="translate(-418.456 -1918.869)"/><path class="e" d="M430.942,1991.216a1.575,1.575,0,0,0-1.587,1.59V2011.5a1.588,1.588,0,0,0,3.176,0v-18.691A1.577,1.577,0,0,0,430.942,1991.216Z" transform="translate(-410.174 -1959.727)"/><path class="f" d="M474.968,1961.184a1.6,1.6,0,0,0-1.616,1.587v13.348a1.6,1.6,0,0,0,3.205,0v-13.348A1.6,1.6,0,0,0,474.968,1961.184Z" transform="translate(-435.021 -1942.766)"/><path class="e" d="M419.451,1934.8a4.8,4.8,0,0,0-4.764,4.8V1968.7a1.588,1.588,0,1,0,3.177,0v-29.105a1.6,1.6,0,0,1,3.207,0v14.966a1.588,1.588,0,0,0,3.176,0v-14.966A4.8,4.8,0,0,0,419.451,1934.8Z" transform="translate(-401.89 -1927.865)"/><path class="g" d="M489.673,1971.779a1.6,1.6,0,0,0-1.585,1.619v4.093a1.587,1.587,0,0,0,3.175,0V1973.4A1.6,1.6,0,0,0,489.673,1971.779Z" transform="translate(-443.343 -1948.75)"/><path class="d" d="M451.991,1943.99a1.624,1.624,0,0,0-1.587,1.618v29.076a1.588,1.588,0,0,1-3.177,0v-14.933a1.63,1.63,0,0,0-1.62-1.62,1.6,1.6,0,0,0-1.587,1.62v14.933a4.794,4.794,0,1,0,9.589,0v-29.076A1.629,1.629,0,0,0,451.991,1943.99Z" transform="translate(-418.456 -1933.056)"/></g></g></g></svg>