<svg xmlns="http://www.w3.org/2000/svg" xmlns:xlink="http://www.w3.org/1999/xlink" width="140" height="140" viewBox="0 0 140 140"><defs><style>.a{fill:#323246;}.b{fill:#faad1b;}.c{fill:#63be98;}.d{fill:#5472d1;}.e{fill:#b6c55c;}.f{fill:#31abb2;}.g{fill:#d8b93c;}.h{fill:#94d17d;}.i{filter:url(#a);}</style><filter id="a" x="0" y="0" width="140" height="140" filterUnits="userSpaceOnUse"><feOffset input="SourceAlpha"/><feGaussianBlur stdDeviation="10" result="b"/><feFlood flood-color="#94d17d" flood-opacity="0.271"/><feComposite operator="in" in2="b"/><feComposite in="SourceGraphic"/></filter></defs><g transform="translate(1724 1081)"><g transform="translate(-2437.705 -3163.116)"><g transform="translate(743.705 2112.116)"><g class="i" transform="matrix(1, 0, 0, 1, -30, -30)"><circle class="a" cx="40" cy="40" r="40" transform="translate(30 30)"/></g></g></g><g transform="translate(-2499.347 -3323.131)"><g transform="translate(821.357 2293.131)"><g transform="translate(0 0)"><path class="b" d="M760.833,2349.992a1.624,1.624,0,0,0-1.591,1.622v2.354a1.606,1.606,0,0,0,3.211,0v-2.354A1.631,1.631,0,0,0,760.833,2349.992Z" transform="translate(-759.242 -2333.55)"/><path class="c" d="M849.05,2354.948a1.633,1.633,0,0,0,1.622-1.62v-7.558a1.627,1.627,0,0,0-1.622-1.591,1.6,1.6,0,0,0-1.589,1.591v7.558A1.6,1.6,0,0,0,849.05,2354.948Z" transform="translate(-809.014 -2330.27)"/><path class="d" d="M778.677,2313.012a4.8,4.8,0,0,0-4.77,4.8v15.011a1.591,1.591,0,1,0,3.181,0v-15.011a1.606,1.606,0,0,1,3.212,0v8.553a1.59,1.59,0,0,0,3.18,0v-8.553A4.81,4.81,0,0,0,778.677,2313.012Z" transform="translate(-767.516 -2312.686)"/><path class="e" d="M778.71,2377.616a4.8,4.8,0,0,0,4.77-4.8v-10.279a1.59,1.59,0,1,0-3.181,0v10.279a1.606,1.606,0,0,1-3.211,0v-5.938a1.59,1.59,0,0,0-3.181,0v5.938A4.81,4.81,0,0,0,778.71,2377.616Z" transform="translate(-767.516 -2339.729)"/><path class="f" d="M863.631,2348.992a1.6,1.6,0,0,0-1.587,1.622v3.226a1.589,1.589,0,0,0,3.179,0v-3.226A1.6,1.6,0,0,0,863.631,2348.992Z" transform="translate(-817.241 -2332.985)"/><path class="c" d="M834.262,2320.78a1.627,1.627,0,0,0,1.589-1.621v-2.093a1.59,1.59,0,0,1,3.181,0V2322a1.632,1.632,0,0,0,1.623,1.622,1.6,1.6,0,0,0,1.589-1.622v-4.928a4.8,4.8,0,1,0-9.6,0v2.093A1.632,1.632,0,0,0,834.262,2320.78Z" transform="translate(-800.653 -2312.264)"/></g><g transform="translate(0 0)"><path class="b" d="M760.833,2349.992a1.624,1.624,0,0,0-1.591,1.622v2.354a1.606,1.606,0,0,0,3.211,0v-2.354A1.631,1.631,0,0,0,760.833,2349.992Z" transform="translate(-759.242 -2333.55)"/><path class="c" d="M849.05,2354.948a1.633,1.633,0,0,0,1.622-1.62v-7.558a1.627,1.627,0,0,0-1.622-1.591,1.6,1.6,0,0,0-1.589,1.591v7.558A1.6,1.6,0,0,0,849.05,2354.948Z" transform="translate(-809.014 -2330.27)"/><path class="g" d="M778.677,2313.012a4.8,4.8,0,0,0-4.77,4.8v15.011a1.591,1.591,0,1,0,3.181,0v-15.011a1.606,1.606,0,0,1,3.212,0v8.553a1.59,1.59,0,0,0,3.18,0v-8.553A4.81,4.81,0,0,0,778.677,2313.012Z" transform="translate(-767.516 -2312.686)"/><path class="e" d="M778.71,2377.616a4.8,4.8,0,0,0,4.77-4.8v-10.279a1.59,1.59,0,1,0-3.181,0v10.279a1.606,1.606,0,0,1-3.211,0v-5.938a1.59,1.59,0,0,0-3.181,0v5.938A4.81,4.81,0,0,0,778.71,2377.616Z" transform="translate(-767.516 -2339.729)"/><path class="f" d="M863.631,2348.992a1.6,1.6,0,0,0-1.587,1.622v3.226a1.589,1.589,0,0,0,3.179,0v-3.226A1.6,1.6,0,0,0,863.631,2348.992Z" transform="translate(-817.241 -2332.985)"/><path class="c" d="M834.262,2320.78a1.627,1.627,0,0,0,1.589-1.621v-2.093a1.59,1.59,0,0,1,3.181,0V2322a1.632,1.632,0,0,0,1.623,1.622,1.6,1.6,0,0,0,1.589-1.622v-4.928a4.8,4.8,0,1,0-9.6,0v2.093A1.632,1.632,0,0,0,834.262,2320.78Z" transform="translate(-800.653 -2312.264)"/></g><path class="h" d="M840.624,2362.586a1.626,1.626,0,0,0-1.589,1.621v4.271a1.591,1.591,0,0,1-3.181,0v-14.939a1.632,1.632,0,0,0-1.622-1.622,1.6,1.6,0,0,0-1.589,1.622v14.939a4.8,4.8,0,1,0,9.6,0v-4.271A1.631,1.631,0,0,0,840.624,2362.586Z" transform="translate(-800.653 -2334.636)"/></g></g></g></svg>