<svg xmlns="http://www.w3.org/2000/svg" width="11.835" height="10" viewBox="0 0 11.835 10"><defs><style>.a{opacity:0.8;}.b{fill:#fff;}</style></defs><g class="a"><path class="b" d="M776.669,1802.665c.061-.054.132-.116.184-.159s.1-.076.163-.122.134-.1.193-.134.108-.066.178-.1.147-.081.209-.112.114-.057.187-.09.161-.068.224-.092.127-.049.19-.07c.082-.027.164-.05.248-.072.062-.016.122-.033.185-.047.1-.021.195-.036.293-.05.053-.007.1-.018.158-.024a4.381,4.381,0,0,1,.467-.026,4.3,4.3,0,0,1,3.608,1.962h-2.04v.784h3.138v-3.138h-.785v1.453a5.075,5.075,0,0,0-4.473-1.811c-.063.006-.123.019-.186.028-.116.017-.232.033-.346.058-.074.017-.145.038-.219.057-.1.026-.2.052-.294.084-.075.025-.134.047-.224.082s-.191.078-.266.11-.137.062-.22.1-.174.093-.245.134-.131.072-.209.127-.164.112-.229.159-.117.084-.192.144-.162.14-.219.189-.114.1-.168.154c-.076.075-.149.156-.221.236-.038.042-.079.079-.115.122s-.072.109-.113.16h1.031Z" transform="translate(-772.812 -1800.78)"/><path class="b" d="M783.813,1805.648a4.293,4.293,0,0,1-5.171,4.212h-2.035a5.095,5.095,0,0,0,7.99-4.212Z" transform="translate(-772.763 -1800.763)"/><path class="b" d="M773.058,1807.073v.759H775.6v-.759h-.8v-2.824h-.861a.635.635,0,0,1-.146.154,2.78,2.78,0,0,1-.273.2,2.5,2.5,0,0,1-.321.173.7.7,0,0,1-.275.071v.785a.958.958,0,0,0,.272-.044,1.768,1.768,0,0,0,.3-.112,2.339,2.339,0,0,0,.266-.149.629.629,0,0,0,.179-.153v1.9Z" transform="translate(-772.932 -1800.734)"/><path class="b" d="M776.394,1806.761a1.345,1.345,0,0,0-.025.142h.733a.762.762,0,0,1,.287-.257.8.8,0,0,1,.386-.094.746.746,0,0,1,.5,1.271.773.773,0,0,1-.555.2,1.131,1.131,0,0,1-.546-.143,1.307,1.307,0,0,1-.439-.389l-.483.5a1.426,1.426,0,0,0,.586.565,1.824,1.824,0,0,0,.876.206,1.885,1.885,0,0,0,.653-.109,1.553,1.553,0,0,0,.521-.308,1.386,1.386,0,0,0,.343-.474,1.606,1.606,0,0,0,.012-1.2,1.341,1.341,0,0,0-.3-.452,1.377,1.377,0,0,0-.464-.293,1.64,1.64,0,0,0-.584-.1,1.1,1.1,0,0,0-.361.05.529.529,0,0,0-.223.132l.181-1h1.589v-.765h-2.2c-.091.477-.176.908-.25,1.292-.034.164-.065.324-.1.48s-.056.3-.081.428S776.41,1806.68,776.394,1806.761Z" transform="translate(-772.779 -1800.752)"/></g></svg>