<svg xmlns="http://www.w3.org/2000/svg" xmlns:xlink="http://www.w3.org/1999/xlink" width="140" height="140" viewBox="0 0 140 140"><defs><style>.a{fill:#323246;}.b{fill:#faad1b;}.c{fill:#d8b93c;}.d{fill:#94d17d;}.e{fill:#b6c55c;}.f{fill:#63be98;}.g{fill:#31abb2;}.h{filter:url(#a);}</style><filter id="a" x="0" y="0" width="140" height="140" filterUnits="userSpaceOnUse"><feOffset input="SourceAlpha"/><feGaussianBlur stdDeviation="10" result="b"/><feFlood flood-color="#94d17d" flood-opacity="0.271"/><feComposite operator="in" in2="b"/><feComposite in="SourceGraphic"/></filter></defs><g transform="translate(30 30)"><g class="h" transform="matrix(1, 0, 0, 1, -30, -30)"><circle class="a" cx="40" cy="40" r="40" transform="translate(30 30)"/></g><g transform="translate(-565.046 -2282.517)"><g transform="translate(580.826 2300.4)"><path class="b" d="M582.417,2339.381a1.624,1.624,0,0,0-1.591,1.621v4.1a1.605,1.605,0,0,0,3.21,0V2341A1.631,1.631,0,0,0,582.417,2339.381Z" transform="translate(-580.826 -2322.395)"/><path class="c" d="M597.111,2328.786a1.6,1.6,0,0,0-1.62,1.589v13.363a1.606,1.606,0,0,0,3.211,0v-13.363A1.6,1.6,0,0,0,597.111,2328.786Z" transform="translate(-589.101 -2316.417)"/><path class="d" d="M641.148,2322.5a1.632,1.632,0,0,0,1.622-1.62v-7.82a1.626,1.626,0,0,0-1.622-1.59,1.6,1.6,0,0,0-1.589,1.59v7.82A1.6,1.6,0,0,0,641.148,2322.5Z" transform="translate(-613.966 -2306.647)"/><path class="e" d="M626.483,2358.818a1.578,1.578,0,0,0-1.589,1.592v11.74a1.59,1.59,0,0,0,3.18,0v-11.74A1.579,1.579,0,0,0,626.483,2358.818Z" transform="translate(-605.691 -2333.362)"/><path class="f" d="M670.509,2328.786a1.6,1.6,0,0,0-1.618,1.589v13.363a1.6,1.6,0,0,0,3.209,0v-13.363A1.6,1.6,0,0,0,670.509,2328.786Z" transform="translate(-630.516 -2316.417)"/><path class="e" d="M615,2300.4a4.8,4.8,0,0,0-4.769,4.8v37.418a1.59,1.59,0,1,0,3.18,0V2305.2a1.606,1.606,0,0,1,3.211,0v15.854a1.59,1.59,0,0,0,3.18,0V2305.2A4.81,4.81,0,0,0,615,2300.4Z" transform="translate(-597.415 -2300.4)"/><path class="g" d="M685.215,2338.381a1.6,1.6,0,0,0-1.587,1.621v4.969a1.589,1.589,0,0,0,3.178,0V2340A1.6,1.6,0,0,0,685.215,2338.381Z" transform="translate(-638.832 -2321.831)"/><path class="d" d="M647.539,2320.592a1.626,1.626,0,0,0-1.589,1.621v18.65a1.59,1.59,0,0,1-3.181,0v-8.414a1.631,1.631,0,0,0-1.622-1.622,1.6,1.6,0,0,0-1.589,1.622v8.414a4.8,4.8,0,1,0,9.6,0v-18.65A1.631,1.631,0,0,0,647.539,2320.592Z" transform="translate(-613.966 -2311.793)"/></g></g></g></svg>