<svg xmlns="http://www.w3.org/2000/svg" xmlns:xlink="http://www.w3.org/1999/xlink" width="140" height="140" viewBox="0 0 140 140"><defs><style>.a{fill:#323246;}.b{fill:#0098cd;}.c{fill:#5472d1;}.d{fill:#eb108b;}.e{fill:#824baa;}.f{fill:#f77a43;}.g{fill:#faad1b;}.h{filter:url(#a);}</style><filter id="a" x="0" y="0" width="140" height="140" filterUnits="userSpaceOnUse"><feOffset input="SourceAlpha"/><feGaussianBlur stdDeviation="10" result="b"/><feFlood flood-opacity="0.275"/><feComposite operator="in" in2="b"/><feComposite in="SourceGraphic"/></filter></defs><g transform="translate(30 30)"><g class="h" transform="matrix(1, 0, 0, 1, -30, -30)"><circle class="a" cx="40" cy="40" r="40" transform="translate(30 30)"/></g><g transform="translate(15.855 16.724)"><path class="b" d="M591.946,2164.169a1.622,1.622,0,0,0-1.589,1.62v4.093a1.6,1.6,0,0,0,3.206,0v-4.093A1.629,1.629,0,0,0,591.946,2164.169Z" transform="translate(-590.357 -2147.203)"/><path class="c" d="M606.64,2153.575a1.6,1.6,0,0,0-1.618,1.587v13.348a1.6,1.6,0,0,0,3.207,0v-13.348A1.6,1.6,0,0,0,606.64,2153.575Z" transform="translate(-598.639 -2141.219)"/><path class="d" d="M650.677,2147.277a1.631,1.631,0,0,0,1.62-1.618v-7.811a1.625,1.625,0,0,0-1.62-1.588,1.6,1.6,0,0,0-1.587,1.588v7.811A1.6,1.6,0,0,0,650.677,2147.277Z" transform="translate(-623.527 -2131.441)"/><path class="e" d="M636.012,2183.607a1.575,1.575,0,0,0-1.587,1.589v11.727a1.588,1.588,0,0,0,3.176,0V2185.2A1.577,1.577,0,0,0,636.012,2183.607Z" transform="translate(-615.244 -2158.18)"/><path class="f" d="M680.038,2153.575a1.6,1.6,0,0,0-1.616,1.587v13.348a1.6,1.6,0,0,0,3.205,0v-13.348A1.6,1.6,0,0,0,680.038,2153.575Z" transform="translate(-640.092 -2141.219)"/><path class="e" d="M624.522,2125.188a4.8,4.8,0,0,0-4.764,4.8v37.374a1.588,1.588,0,1,0,3.177,0v-37.374a1.6,1.6,0,0,1,3.207,0v15.836a1.588,1.588,0,0,0,3.176,0v-15.836A4.8,4.8,0,0,0,624.522,2125.188Z" transform="translate(-606.961 -2125.188)"/><path class="g" d="M694.744,2163.169a1.6,1.6,0,0,0-1.585,1.62v4.963a1.587,1.587,0,0,0,3.174,0v-4.963A1.6,1.6,0,0,0,694.744,2163.169Z" transform="translate(-648.414 -2146.638)"/><path class="d" d="M657.061,2145.38a1.625,1.625,0,0,0-1.587,1.619v18.629a1.588,1.588,0,0,1-3.176,0v-8.4a1.63,1.63,0,0,0-1.62-1.62,1.6,1.6,0,0,0-1.587,1.62v8.4a4.794,4.794,0,1,0,9.589,0V2147A1.63,1.63,0,0,0,657.061,2145.38Z" transform="translate(-623.527 -2136.591)"/></g></g></svg>