<svg xmlns="http://www.w3.org/2000/svg" xmlns:xlink="http://www.w3.org/1999/xlink" width="140" height="140" viewBox="0 0 140 140"><defs><style>.a{fill:#323246;}.b{fill:#0098cd;}.c{fill:#f77a43;}.d{fill:#5472d1;}.e{fill:#824baa;}.f{fill:#faad1b;}.g{fill:#eb108b;}.h{filter:url(#a);}</style><filter id="a" x="0" y="0" width="140" height="140" filterUnits="userSpaceOnUse"><feOffset input="SourceAlpha"/><feGaussianBlur stdDeviation="10" result="b"/><feFlood flood-opacity="0.275"/><feComposite operator="in" in2="b"/><feComposite in="SourceGraphic"/></filter></defs><g transform="translate(-713.705 -2082.116)"><g transform="translate(743.705 2112.116)"><g class="h" transform="matrix(1, 0, 0, 1, -30, -30)"><circle class="a" cx="40" cy="40" r="40" transform="translate(30 30)"/></g></g><g transform="translate(0 2)"><g transform="translate(759.242 2130.441)"><path class="b" d="M760.836,2168.169a1.627,1.627,0,0,0-1.594,1.625v2.36a1.609,1.609,0,0,0,3.217,0v-2.36A1.634,1.634,0,0,0,760.836,2168.169Z" transform="translate(-759.242 -2151.695)"/><path class="c" d="M849.053,2173.146a1.636,1.636,0,0,0,1.626-1.623v-7.573a1.63,1.63,0,0,0-1.626-1.594,1.6,1.6,0,0,0-1.592,1.594v7.573A1.608,1.608,0,0,0,849.053,2173.146Z" transform="translate(-809.093 -2148.421)"/><path class="d" d="M778.686,2131.188a4.813,4.813,0,0,0-4.779,4.812v15.039a1.594,1.594,0,1,0,3.187,0V2136a1.609,1.609,0,0,1,3.218,0v8.569a1.593,1.593,0,0,0,3.186,0V2136A4.819,4.819,0,0,0,778.686,2131.188Z" transform="translate(-767.504 -2130.862)"/><path class="e" d="M778.719,2195.825a4.813,4.813,0,0,0,4.779-4.812v-10.3a1.593,1.593,0,1,0-3.187,0v10.3a1.609,1.609,0,0,1-3.218,0v-5.949a1.593,1.593,0,0,0-3.187,0v5.949A4.82,4.82,0,0,0,778.719,2195.825Z" transform="translate(-767.504 -2157.865)"/><path class="f" d="M863.634,2167.169a1.606,1.606,0,0,0-1.59,1.625v3.233a1.592,1.592,0,0,0,3.185,0v-3.233A1.608,1.608,0,0,0,863.634,2167.169Z" transform="translate(-817.309 -2151.132)"/><path class="c" d="M834.265,2138.973a1.63,1.63,0,0,0,1.592-1.624v-2.1a1.593,1.593,0,0,1,3.187,0v4.938a1.635,1.635,0,0,0,1.626,1.625,1.607,1.607,0,0,0,1.592-1.625v-4.937a4.81,4.81,0,1,0-9.619,0v2.1A1.635,1.635,0,0,0,834.265,2138.973Z" transform="translate(-800.745 -2130.441)"/></g><path class="g" d="M840.639,2180.783a1.629,1.629,0,0,0-1.592,1.624v4.28a1.594,1.594,0,0,1-3.187,0v-14.968a1.635,1.635,0,0,0-1.625-1.625,1.607,1.607,0,0,0-1.592,1.625v14.968a4.81,4.81,0,1,0,9.619,0v-4.28A1.634,1.634,0,0,0,840.639,2180.783Z" transform="translate(-41.503 -22.339)"/></g></g></svg>