<svg xmlns="http://www.w3.org/2000/svg" width="25.226" height="19.981" viewBox="0 0 25.226 19.981"><defs><style>.a{fill:#fff;fill-rule:evenodd;opacity:0.402;}.b,.c,.d{fill:none;stroke-miterlimit:10;stroke-width:2px;}.b,.c{stroke:#fff;}.b,.d{opacity:0.4;}.c{opacity:0.802;}.d{stroke:#242433;}</style></defs><g transform="translate(0 1)"><path class="a" d="M19.789,19.183a1.8,1.8,0,0,1-1.8,1.8H10.8a1.8,1.8,0,0,1-1.8-1.8V4.8A1.8,1.8,0,0,1,10.8,3h7.192a1.8,1.8,0,0,1,1.8,1.8Zm-5.394-7.192a3.6,3.6,0,1,0-3.6-3.6A3.6,3.6,0,0,0,14.394,11.991Zm0,7.192a1.8,1.8,0,1,0-1.8-1.8A1.8,1.8,0,0,0,14.394,19.183Zm0-8.991a1.8,1.8,0,1,0-1.8-1.8A1.8,1.8,0,0,0,14.394,10.192Z" transform="translate(-9 -3)"/><g transform="translate(15.236)"><path class="b" d="M512.073,2282.893a2.451,2.451,0,0,1,0,4.9" transform="translate(-512.073 -2276.292)"/><path class="c" d="M512.073,2282.893a5.709,5.709,0,0,1,0,11.418" transform="translate(-512.073 -2279.55)"/><path class="d" d="M512.073,2282.892a8.991,8.991,0,0,1,0,17.981" transform="translate(-512.073 -2282.892)"/></g></g></svg>