<svg xmlns="http://www.w3.org/2000/svg" width="18.815" height="19.512" viewBox="0 0 18.815 19.512"><defs><style>.a{opacity:0.8;}.b{fill:#fff;}</style></defs><g class="a" transform="translate(-2.813 -2.25)"><path class="b" d="M14.625,5.625h11.5V7.019h-11.5Z" transform="translate(-4.495 -1.284)"/><path class="b" d="M2.813,5.037A2.787,2.787,0,1,0,5.6,2.25,2.787,2.787,0,0,0,2.813,5.037ZM5.6,3.644A1.394,1.394,0,1,1,4.207,5.037,1.394,1.394,0,0,1,5.6,3.644Z" transform="translate(0 0)"/><path class="b" d="M14.625,16.875h11.5v1.394h-11.5Z" transform="translate(-4.495 -5.566)"/><path class="b" d="M5.6,19.075a2.787,2.787,0,1,0-2.787-2.787A2.787,2.787,0,0,0,5.6,19.075Zm0-4.181a1.394,1.394,0,1,1-1.394,1.394A1.394,1.394,0,0,1,5.6,14.894Z" transform="translate(0 -4.281)"/><path class="b" d="M14.625,28.125h11.5v1.394h-11.5Z" transform="translate(-4.495 -9.847)"/><path class="b" d="M5.6,30.325a2.787,2.787,0,1,0-2.787-2.787A2.787,2.787,0,0,0,5.6,30.325Zm0-4.181a1.394,1.394,0,1,1-1.394,1.394A1.394,1.394,0,0,1,5.6,26.144Z" transform="translate(0 -8.563)"/></g></svg>