<svg xmlns="http://www.w3.org/2000/svg" width="10.861" height="15.205" viewBox="0 0 10.861 15.205"><defs><style>.a{fill:#faad1b;fill-rule:evenodd;}</style></defs><path class="a" d="M13.758,21.619A1.086,1.086,0,0,1,12.672,22.7H11.586A1.086,1.086,0,0,1,10.5,21.619V8.586A1.086,1.086,0,0,1,11.586,7.5h1.086a1.086,1.086,0,0,1,1.086,1.086Zm7.6,0A1.086,1.086,0,0,1,20.275,22.7H19.188A1.086,1.086,0,0,1,18.1,21.619V8.586A1.086,1.086,0,0,1,19.188,7.5h1.086a1.086,1.086,0,0,1,1.086,1.086Z" transform="translate(-10.5 -7.5)"/></svg>