<svg xmlns="http://www.w3.org/2000/svg" width="31.5" height="27" viewBox="0 0 31.5 27"><defs><style>.a{fill:#fff;}</style></defs><g transform="translate(-2.25 -4.5)"><path class="a" d="M33.75,9H29.138A5.627,5.627,0,0,0,18.112,9H2.25v2.25H18.112a5.627,5.627,0,0,0,11.026,0H33.75ZM23.625,13.5a3.315,3.315,0,0,1-3.375-3.375,3.375,3.375,0,0,1,6.75,0A3.315,3.315,0,0,1,23.625,13.5Z"/><path class="a" d="M2.25,27H6.862a5.627,5.627,0,0,0,11.026,0H33.75V24.75H17.887a5.627,5.627,0,0,0-11.026,0H2.25Zm10.125-4.5A3.375,3.375,0,1,1,9,25.875,3.315,3.315,0,0,1,12.375,22.5Z"/></g></svg>