<svg xmlns="http://www.w3.org/2000/svg" width="24.675" height="24.614" viewBox="0 0 24.675 24.614"><defs><style>.a{fill:#f77a43;}</style></defs><path class="a" d="M17.111,26.3v-11.6H15.466V26.3L12.8,23.636,11.636,24.8l4.653,4.653L20.942,24.8l-1.163-1.163Z" transform="translate(-3.951 -4.838)"/><path class="a" d="M20.865,8.61a7.4,7.4,0,0,0-14.8,0,4.935,4.935,0,1,0,0,9.87h4.112V16.835H6.06a3.29,3.29,0,1,1,0-6.58H7.7V8.61a5.757,5.757,0,0,1,11.515,0v1.645h1.645a3.29,3.29,0,1,1,0,6.58H16.752V18.48h4.112a4.935,4.935,0,1,0,0-9.87Z" transform="translate(-1.125 -1.208)"/></svg>