<svg xmlns="http://www.w3.org/2000/svg" width="24.112" height="26.718" viewBox="0 0 24.112 26.718"><defs><style>.a{fill:#0098cd;}</style></defs><path class="a" d="M22.965,0a2.93,2.93,0,0,1,2.9,2.756V26.718l-2.981-2.531L21.25,22.7l-1.786-1.556.746,2.455H4.583A2.762,2.762,0,0,1,1.755,20.84V2.761A2.818,2.818,0,0,1,4.588,0H22.957ZM16.154,6.326h-.033l-.225.223A8.975,8.975,0,0,1,19.32,8.26a12.119,12.119,0,0,0-4.168-1.266,11.43,11.43,0,0,0-2.756,0h-.223a9.919,9.919,0,0,0-3.128.819c-.52.226-.819.374-.819.374A7.94,7.94,0,0,1,11.8,6.475l-.151-.151a6.688,6.688,0,0,0-3.87,1.414,17.421,17.421,0,0,0-2.01,7.815,4.857,4.857,0,0,0,4.167,2.011s.445-.594.9-1.115A4.4,4.4,0,0,1,8.45,14.886a3.717,3.717,0,0,1,.373.223H8.89a.087.087,0,0,1,.067.033v.007a.085.085,0,0,0,.067.033c.367.151.735.3,1.035.445a9.107,9.107,0,0,0,2,.6,11.423,11.423,0,0,0,3.574,0,10.364,10.364,0,0,0,2-.6,16.085,16.085,0,0,0,1.555-.82,4.424,4.424,0,0,1-2.455,1.563c.367.519.885,1.113.885,1.113a5.811,5.811,0,0,0,4.308-1.921,17.385,17.385,0,0,0-2.021-7.815,6.7,6.7,0,0,0-3.824-1.4l.062-.022Zm.187,4.913a1.491,1.491,0,1,1-1.414,1.493,1.452,1.452,0,0,1,1.414-1.493Zm-5.058,0a1.491,1.491,0,1,1-1.418,1.493,1.45,1.45,0,0,1,1.418-1.493Z" transform="translate(-1.755)"/></svg>