<svg xmlns="http://www.w3.org/2000/svg" width="24.492" height="24.492" viewBox="0 0 24.492 24.492"><defs><style>.a,.b{fill:#f77a43;}.a{fill-rule:evenodd;}</style></defs><path class="a" d="M16.066,10.5a5.566,5.566,0,1,0,5.566,5.566A5.566,5.566,0,0,0,16.066,10.5Zm-3.34,5.566a3.34,3.34,0,1,0,3.34-3.34A3.34,3.34,0,0,0,12.727,16.066Z" transform="translate(-3.82 -3.82)"/><path class="b" d="M26.613,7.5a1.113,1.113,0,1,0,1.113,1.113A1.113,1.113,0,0,0,26.613,7.5Z" transform="translate(-7.688 -3.047)"/><path class="a" d="M5.953,1.5A4.453,4.453,0,0,0,1.5,5.953V21.539a4.453,4.453,0,0,0,4.453,4.453H21.539a4.453,4.453,0,0,0,4.453-4.453V5.953A4.453,4.453,0,0,0,21.539,1.5ZM21.539,3.727H5.953A2.227,2.227,0,0,0,3.727,5.953V21.539a2.227,2.227,0,0,0,2.227,2.227H21.539a2.227,2.227,0,0,0,2.227-2.227V5.953A2.227,2.227,0,0,0,21.539,3.727Z" transform="translate(-1.5 -1.5)"/></svg>