<svg xmlns="http://www.w3.org/2000/svg" width="26.718" height="22.265" viewBox="0 0 26.718 22.265"><defs><style>.a{fill:#824baa;}</style></defs><path class="a" d="M26.718,5.6a7.18,7.18,0,0,1-1,1.429,7.365,7.365,0,0,1-1.8,1.519q.03.238.045.447a16.212,16.212,0,0,1-1.147,6.211A16.353,16.353,0,0,1,16.309,23.3,17.112,17.112,0,0,1,6.121,25.159,11.7,11.7,0,0,1,0,22.791a11.406,11.406,0,0,0,8.162-2.353A5.622,5.622,0,0,1,2.979,16.6a3.485,3.485,0,0,0,1.162.059,10.806,10.806,0,0,0,1.311-.179,6.144,6.144,0,0,1-3.723-2.889,6.228,6.228,0,0,1-.626-2.74,5.233,5.233,0,0,0,2.472.744A6.387,6.387,0,0,1,1.147,7.644a7.308,7.308,0,0,1,.67-3.559A18.72,18.72,0,0,0,8.177,8.85a13.174,13.174,0,0,0,4.989,1.043,6.668,6.668,0,0,1,.67-4.23,5.762,5.762,0,0,1,3.44-2.5A5.078,5.078,0,0,1,22.369,4.74,9.066,9.066,0,0,0,25.914,3.43a5.378,5.378,0,0,1-2.442,3.157A15.488,15.488,0,0,0,26.718,5.6Z" transform="translate(0 -2.999)"/></svg>